<?xml version="1.0" encoding="UTF-8"?>
<svg version="1.1" xmlns="http://www.w3.org/2000/svg" width="931" height="856">
<path d="M0 0 C1.63677326 0.00254204 3.27355677 0.00110707 4.9103241 -0.00398254 C9.33204815 -0.00655455 13.75155442 0.04618266 18.17276502 0.10918307 C22.80109091 0.16562162 27.42947329 0.17074541 32.05809021 0.18141174 C40.81310558 0.20933364 49.56710393 0.28311776 58.32167238 0.37355715 C68.29252672 0.47431525 78.26343082 0.52367824 88.2346679 0.56881607 C108.73700864 0.66277287 129.23843525 0.82097426 149.73999023 1.02172852 C157.22797149 21.20377258 157.22797149 21.20377258 160.39624023 30.64672852 C160.70045898 31.54548706 161.00467773 32.44424561 161.31811523 33.37023926 C161.96209115 35.27285826 162.60507006 37.175815 163.24707031 39.07910156 C164.9882421 44.23925488 166.73858395 49.39629129 168.48999023 54.55297852 C168.8462146 55.60183228 169.20243896 56.65068604 169.56945801 57.73132324 C173.06803149 68.01527432 176.64669227 78.27056957 180.23999023 88.52172852 C185.83352991 104.48450089 191.31722951 120.48217296 196.75024414 136.50024414 C201.5111873 150.53201274 206.34044618 164.53777444 211.23999023 178.52172852 C216.83292618 194.48471579 222.31722717 210.48216607 227.75024414 226.50024414 C232.80859351 241.40854814 237.95201745 256.28475177 243.15817261 271.14202881 C248.96802331 287.72884822 254.64867181 304.35825647 260.28686523 321.00415039 C260.91832956 322.86679623 261.54983886 324.72942681 262.18139648 326.59204102 C262.48216095 327.48066833 262.78292542 328.36929565 263.09280396 329.28485107 C264.54220947 333.55373558 266.01377717 337.81252908 267.53637695 342.0559082 C267.81811264 342.84214569 268.09984833 343.62838318 268.39012146 344.43844604 C268.91746436 345.90320952 269.44898428 347.36647873 269.98548889 348.82791138 C271.02388782 351.70798579 271.73999023 353.93282333 271.73999023 357.02172852 C272.39999023 357.02172852 273.05999023 357.02172852 273.73999023 357.02172852 C273.90522942 356.2036824 273.90522942 356.2036824 274.07380676 355.36911011 C275.2540372 349.77147137 276.81703795 344.43117134 278.68920898 339.02954102 C278.97821579 338.18349304 279.2672226 337.33744507 279.56498718 336.46575928 C280.51435995 333.69107877 281.47080445 330.91889519 282.42749023 328.14672852 C283.10374069 326.17564222 283.77967907 324.20444883 284.45532227 322.2331543 C289.26390924 308.22311278 294.14285532 294.23770295 299.03915405 280.25811768 C304.56443241 264.47920644 309.95914266 248.65784331 315.32345581 232.82357788 C320.20254319 218.42624605 325.14700218 204.05433747 330.17749023 189.70922852 C335.79836137 173.68011687 341.29465995 157.61129048 346.73999023 141.52172852 C352.47714749 124.5698923 358.28343446 107.64569108 364.20605469 90.75778198 C370.19762472 73.66605502 376.03822235 56.52438175 381.84375 39.36865234 C385.09221718 29.77278766 388.35443917 20.18190539 391.67749023 10.61157227 C391.97220215 9.75664688 392.26691406 8.9017215 392.57055664 8.02088928 C394.62338463 2.13833412 394.62338463 2.13833412 395.73999023 1.02172852 C397.82019734 0.90511933 399.90440545 0.85977255 401.98779297 0.84091187 C402.97797802 0.83010509 402.97797802 0.83010509 403.98816681 0.81908 C406.21662183 0.79622518 408.44506557 0.78074517 410.67358398 0.76538086 C412.26502257 0.75093936 413.85645831 0.73618183 415.44789124 0.72113037 C430.00267632 0.59063499 444.55823977 0.5249476 459.11349487 0.47328758 C469.87308385 0.43440551 480.63162355 0.36612074 491.39075184 0.25873983 C498.954315 0.18580205 506.51759191 0.14743887 514.08149242 0.13426173 C518.59890533 0.12540646 523.11502276 0.10123888 527.63204956 0.03959274 C531.88753548 -0.01781963 536.14106377 -0.03228131 540.3968792 -0.014534 C541.95414426 -0.01540967 543.51149173 -0.03156567 545.06840706 -0.06457901 C552.54957897 -0.21490384 558.42761 -0.16871208 564.16772461 5.21157837 C567.28113711 8.68387534 568.45795036 11.36835495 568.86499023 16.02172852 C567.73999023 22.02172852 567.73999023 22.02172852 558.73999023 31.02172852 C535.96999023 31.02172852 513.19999023 31.02172852 489.73999023 31.02172852 C489.73999023 182.16172852 489.73999023 333.30172852 489.73999023 489.02172852 C512.50999023 489.02172852 535.27999023 489.02172852 558.73999023 489.02172852 C567.73999023 498.02172852 567.73999023 498.02172852 568.86499023 504.02172852 C568.30720708 509.90075899 566.312568 513.16149069 562.04074097 517.15154648 C554.53808477 521.40249846 545.31685983 520.2630141 536.93139648 520.1862793 C534.6983713 520.19848344 532.46536425 520.21451305 530.23239136 520.23406982 C524.18247257 520.27502859 518.13393817 520.25922261 512.08399582 520.23065805 C505.74606407 520.20783544 499.40824902 520.22901411 493.0703125 520.24313354 C481.74647585 520.26054443 470.42334063 520.23261615 459.0996443 520.18679951 C448.84500831 520.146592 438.59128938 520.15357729 428.33666992 520.19506836 C416.41106072 520.24329822 404.486008 520.26112573 392.56026745 520.23455799 C386.253669 520.22054303 379.94770144 520.21861023 373.6411438 520.24838638 C367.71107392 520.27443038 361.78273171 520.25627306 355.85284805 520.20433807 C353.67969758 520.19246117 351.50640112 520.19581624 349.33330917 520.21570206 C330.88210855 520.36895134 330.88210855 520.36895134 324.95117188 514.78878784 C322.27680391 511.52807422 321.03574275 508.78037582 320.55249023 504.58422852 C321.73999023 499.02172852 321.73999023 499.02172852 331.73999023 489.02172852 C354.17999023 489.02172852 376.61999023 489.02172852 399.73999023 489.02172852 C399.40999023 356.03172852 399.07999023 223.04172852 398.73999023 86.02172852 C390.17335125 110.57942692 381.60883704 135.1328646 373.18590546 159.73934174 C370.96425661 166.22755984 368.73850763 172.71437397 366.51342773 179.20141602 C366.26726841 179.91917835 366.02110909 180.63694069 365.76749039 181.3764534 C360.90393782 195.55700891 356.01472294 209.72863301 351.11499023 223.89672852 C344.47446198 243.09973556 337.85073721 262.30845412 331.23999023 281.52172852 C324.20022721 301.98139964 317.14676648 322.43628368 310.07702637 342.88562012 C305.51247042 356.08918571 300.95498959 369.29514888 296.41186523 382.50610352 C296.18819401 383.1564922 295.96452278 383.80688087 295.73407364 384.4769783 C294.82966941 387.10680695 293.92528552 389.73664258 293.02090645 392.36647987 C284.89136919 416.00576695 276.72263215 439.63071815 268.46653748 463.22615051 C265.0796565 472.90590705 261.70340686 482.58936986 258.32659912 492.27264404 C256.71600877 496.89093678 255.10493853 501.50906208 253.49389648 506.12719727 C252.58510742 508.73239258 251.67631836 511.33758789 250.73999023 514.02172852 C244.46999023 514.02172852 238.19999023 514.02172852 231.73999023 514.02172852 C225.95922382 498.09079269 220.31071282 482.12014946 214.80029297 466.09375 C212.72930554 460.07103702 210.65243256 454.05035349 208.57592773 448.02954102 C208.16135315 446.82714783 207.74677856 445.62475464 207.31964111 444.38592529 C203.65244473 433.75539448 199.9520035 423.13667685 196.23999023 412.52172852 C190.53433574 396.20178982 184.87898198 379.86481475 179.23999023 363.52172852 C173.57940992 347.11641741 167.90279154 330.71707075 162.17749023 314.33422852 C156.71325449 298.69760226 151.2798405 283.05052642 145.86499023 267.39672852 C145.48705322 266.30416748 145.10911621 265.21160645 144.71972656 264.0859375 C144.34162842 262.99289307 143.96353027 261.89984863 143.57397461 260.77368164 C142.81030753 258.56599769 142.04663566 256.3583154 141.28295898 254.15063477 C140.9047702 253.05731842 140.52658142 251.96400208 140.13693237 250.83755493 C136.15719166 239.33410732 132.16822465 227.83386605 128.17749023 216.33422852 C127.65448334 214.82708282 127.65448334 214.82708282 127.12091064 213.28948975 C125.36367645 208.22575108 123.60631279 203.16205736 121.84887695 198.09838867 C119.01975175 189.94668589 116.19161268 181.79464104 113.36352539 173.64257812 C111.95848179 169.59253088 110.55319616 165.54256775 109.14770508 161.49267578 C105.81811236 151.89798992 102.4902979 142.30269626 99.16775513 132.70556641 C97.59282314 128.15669348 96.01702715 123.60812007 94.44116211 119.05957031 C93.68796181 116.8847529 92.935188 114.70978774 92.18286133 112.53466797 C91.14177544 109.52477505 90.0992404 106.51538769 89.05639648 103.50610352 C88.74887955 102.6157843 88.44136261 101.72546509 88.12452698 100.8081665 C87.8385112 99.98371033 87.55249542 99.15925415 87.2578125 98.30981445 C87.01152603 97.59823181 86.76523956 96.88664917 86.51148987 96.15350342 C85.64355795 93.75527094 84.68720574 91.38976728 83.73999023 89.02172852 C83.40999023 221.02172852 83.07999023 353.02172852 82.73999023 489.02172852 C105.50999023 489.02172852 128.27999023 489.02172852 151.73999023 489.02172852 C160.73999023 498.02172852 160.73999023 498.02172852 161.86499023 504.02172852 C161.33635178 510.03720742 159.02881121 513.099296 154.70474243 517.15154648 C148.82659805 520.85951237 142.15231315 520.27033 135.43920898 520.1862793 C133.7973009 520.1984914 132.1554175 520.21452549 130.51358032 520.23406982 C126.07501359 520.27493793 121.63833918 520.25926336 117.19974136 520.23065805 C112.54343008 520.20778669 107.88727505 520.22902747 103.23095703 520.24313354 C95.41303574 520.2594831 87.59588094 520.2379944 79.77807617 520.19506836 C70.75417117 520.14609037 61.73209641 520.16195775 52.70823574 520.21150601 C44.94476179 520.25241884 37.18183713 520.25807725 29.41829014 520.23455799 C24.78835128 520.2205647 20.15927125 520.21854831 15.52938843 520.24838638 C11.17497977 520.27449161 6.82291789 520.25616971 2.46876144 520.20433807 C0.87614199 520.19249257 -0.71667686 520.19576285 -2.30921555 520.21570206 C-9.86680203 520.30156337 -15.91100928 520.25699104 -21.70849609 514.82394409 C-24.80965279 511.35522972 -25.97710019 508.66341022 -26.38500977 504.02172852 C-25.26000977 498.02172852 -25.26000977 498.02172852 -16.26000977 489.02172852 C6.50999023 489.02172852 29.27999023 489.02172852 52.73999023 489.02172852 C52.73999023 337.88172852 52.73999023 186.74172852 52.73999023 31.02172852 C29.96999023 31.02172852 7.19999023 31.02172852 -16.26000977 31.02172852 C-25.26000977 22.02172852 -25.26000977 22.02172852 -26.38500977 16.02172852 C-25.85653103 10.0056124 -23.54723403 6.93614458 -19.22236824 2.88310432 C-13.34855944 -0.80765954 -6.69362922 -0.14605483 0 0 Z " fill="#1955A6" transform="translate(59.260009765625,-1.021728515625)"/>
<path d="M0 0 C1.38391544 -0.01325221 2.76779803 -0.03040572 4.15162224 -0.05109751 C7.93597021 -0.09626116 11.71837963 -0.08564366 15.50286663 -0.06538892 C19.59103503 -0.05322956 23.67875877 -0.09283526 27.76676941 -0.1255188 C35.76749631 -0.1808929 43.76753413 -0.18717791 51.76841564 -0.17490511 C58.27135477 -0.1655068 64.77408688 -0.17221829 71.27700615 -0.19032669 C72.20322297 -0.19286068 73.1294398 -0.19539467 74.08372379 -0.19800545 C75.96541918 -0.20317225 77.84711452 -0.208353 79.72880983 -0.21354754 C97.36424513 -0.2598762 114.99928883 -0.24798491 132.63473552 -0.21820779 C148.76643219 -0.19275594 164.8969722 -0.23950406 181.02845574 -0.32043664 C197.59939427 -0.40293913 214.16978801 -0.4373446 230.74093193 -0.41941416 C240.0417474 -0.41018305 249.34160825 -0.41990215 258.6422596 -0.47980881 C266.55807222 -0.53024675 274.472317 -0.53515857 282.38813467 -0.48136739 C286.4265524 -0.45516464 290.46212295 -0.44978703 294.5003643 -0.50102615 C298.20002194 -0.54741305 301.89443558 -0.53347248 305.59382819 -0.47200187 C307.56096994 -0.45474467 309.5283541 -0.50127094 311.4949618 -0.5502466 C315.17807534 -0.45190874 317.84055302 -0.23049045 321.25364685 1.16976929 C324.93286814 5.09284949 327.42420114 9.06441288 329.25364685 14.16976929 C328.91255348 18.5445787 327.0828094 21.51265782 324.81614685 25.23617554 C324.46456009 25.81833328 324.11297333 26.40049103 323.75073242 27.00028992 C322.59193 28.91522777 321.4228208 30.82364942 320.25364685 32.73226929 C319.43387156 34.0829289 318.61479021 35.43400992 317.79637146 36.78549194 C315.69347393 40.25429991 313.58224686 43.7179493 311.46818542 47.17996216 C308.24318039 52.46356381 305.03119891 57.75510881 301.81614685 63.04476929 C301.29987732 63.89290695 301.29987732 63.89290695 300.7731781 64.75817871 C294.62162855 74.86432136 288.57211569 85.02896161 282.5459137 95.2102356 C276.66679888 105.14051142 270.71919015 115.02571982 264.71165466 124.87875366 C258.98912749 134.26819488 253.35424804 143.70715289 247.75364685 153.16976929 C241.47317828 163.78107027 235.13072185 174.35076156 228.71165466 184.87875366 C222.98912749 194.26819488 217.35424804 203.70715289 211.75364685 213.16976929 C205.1355194 224.3515691 198.44103862 235.4825129 191.67649841 246.57626343 C186.21423107 255.54473315 180.84967349 264.56912973 175.50364685 273.60726929 C169.84766726 283.16888952 164.125793 292.67686757 158.23606873 302.09701538 C152.94851834 310.58919189 147.86681125 319.20109739 142.77415466 327.81088257 C137.15990901 337.30078313 131.49401944 346.7556392 125.75364685 356.16976929 C119.6816764 366.12777947 113.69418025 376.1328131 107.75364685 386.16976929 C101.47356527 396.78041642 95.13233115 407.3499948 88.71266174 417.8767395 C84.61379244 424.60042543 80.54458919 431.34008099 76.5309906 438.11508179 C75.92579086 439.13659332 75.92579086 439.13659332 75.30836487 440.17874146 C73.38510599 443.42732804 71.46532699 446.67791203 69.55052185 449.93148804 C64.4450353 458.58438662 59.20543462 467.1521436 53.93357849 475.70443726 C53.18603459 476.9180251 52.43853922 478.13164285 51.69109344 479.34529114 C49.87916997 482.28712832 48.06659258 485.22856194 46.25364685 488.16976929 C65.76108789 488.24012299 85.26850286 488.29288577 104.77604485 488.3252058 C113.83551675 488.34061726 122.89490942 488.36159613 131.95433044 488.39608765 C139.85856914 488.42616652 147.76275041 488.44538576 155.66704476 488.45203477 C159.84501078 488.45591601 164.02281262 488.46491518 168.20072556 488.48695946 C202.95807725 488.66309023 230.27001157 484.7909578 257.25364685 461.16976929 C258.08122498 460.48656616 258.9088031 459.80336304 259.76145935 459.09945679 C290.78311477 432.74563667 307.18993533 388.42602512 314.7106781 349.59164429 C315.25364685 347.16976929 315.25364685 347.16976929 316.25364685 346.16976929 C318.94765999 345.85105791 321.54974663 345.65914747 324.25364685 345.54476929 C324.98454529 345.47387085 325.71544373 345.40297241 326.4684906 345.32992554 C331.43765549 345.1639956 334.25760203 346.47536696 337.96601868 349.78268433 C343.8166562 355.9319399 343.5282394 362.18936344 343.41819763 370.27719116 C343.43041228 371.79102473 343.44644781 373.30483152 343.46598816 374.81858826 C343.50682746 378.90804627 343.49119491 382.99544856 343.46257639 387.08493996 C343.43968938 391.37690133 343.46095007 395.66869408 343.47505188 399.96066284 C343.49139704 407.16658939 343.4699248 414.37168408 343.42698669 421.57748413 C343.37800898 429.89253194 343.39387672 438.20559346 343.44342434 446.52059317 C343.48435023 453.67686688 343.48998943 460.8325448 343.46647632 467.9888978 C343.45248993 472.2555688 343.45044671 476.52130805 343.48030472 480.78791809 C343.50642976 484.80095682 343.48805525 488.81145129 343.43625641 492.82421684 C343.42442096 494.29105351 343.42766403 495.75810676 343.44762039 497.22485542 C343.4724687 499.23770282 343.43568242 501.25102197 343.39649963 503.26364136 C343.39140979 504.94819805 343.39140979 504.94819805 343.38621712 506.66678619 C341.5312409 512.4041347 338.35451489 515.97359488 333.25364685 519.16976929 C327.97631566 520.45828506 322.83322754 520.39268656 317.44378662 520.3193512 C315.83571724 520.33044767 314.22767096 520.34546068 312.61967057 520.36403447 C308.21580884 520.40345764 303.81368332 520.38694878 299.40978754 520.36095035 C294.65505203 520.34262191 289.90063744 520.37611833 285.14598083 520.40284729 C275.83845934 520.4466971 266.53157618 520.44180099 257.22400276 520.41915854 C249.66080512 520.40156223 242.0977895 520.40117469 234.53458214 520.4130497 C233.45791836 520.41471752 232.38125459 520.41638534 231.27196464 520.4181037 C229.08473978 520.42155353 226.89751497 520.42503715 224.71029022 520.42855421 C204.20687478 520.45938152 183.70381571 520.43428629 163.20044275 520.3905668 C145.60361999 520.35442823 128.00740998 520.36847263 110.41062927 520.41854858 C89.97564244 520.47668923 69.54103056 520.50218003 49.10596436 520.47668725 C46.92773106 520.47407194 44.74949769 520.47150548 42.57126427 520.46898842 C41.49952453 520.46774065 40.4277848 520.46649288 39.32356811 520.4652073 C31.76699212 520.4587223 24.2106798 520.47582956 16.65415382 520.50215721 C7.44879848 520.53366734 -1.75572215 520.52985273 -10.96101245 520.48040184 C-15.65890041 520.45608173 -20.35535695 520.44788077 -25.0532093 520.4829483 C-29.35267481 520.51459562 -33.64941859 520.50021157 -37.94867108 520.44884375 C-39.5050063 520.43835298 -41.0615651 520.44479187 -42.61773618 520.46971013 C-47.14037962 520.53675321 -51.37567289 520.48780317 -55.74635315 519.16976929 C-58.74595686 516.17555078 -60.20072915 513.06999326 -61.74635315 509.16976929 C-62.73635315 507.68476929 -62.73635315 507.68476929 -63.74635315 506.16976929 C-63.46235422 501.74743258 -61.34378323 498.36600419 -59.09010315 494.66586304 C-58.71618439 494.03908661 -58.34226562 493.41231018 -57.95701599 492.76654053 C-56.72712216 490.70916663 -55.48685264 488.65826282 -54.24635315 486.60726929 C-53.38069994 485.16385165 -52.51563597 483.72008048 -51.65113831 482.27597046 C-45.83725022 472.57841805 -39.96127872 462.91808315 -34.07398987 453.26495361 C-28.33534066 443.85410916 -22.73439794 434.36865878 -17.18330383 424.84619141 C-11.62101912 415.30895174 -5.93828093 405.85236979 -0.18385315 396.43002319 C5.22667852 387.56580196 10.52357607 378.64154627 15.75364685 369.66976929 C21.28892352 360.17607635 26.90456918 350.73836888 32.62864685 341.35726929 C38.78160179 331.27289245 44.85807751 321.14626482 50.87864685 310.98226929 C51.28033081 310.30417206 51.68201477 309.62607483 52.09587097 308.9274292 C52.49582275 308.2522525 52.89577454 307.57707581 53.30784607 306.88143921 C54.10484394 305.53611935 54.90188131 304.1908229 55.69895935 302.84555054 C56.08812531 302.18872787 56.47729126 301.53190521 56.87825012 300.85517883 C61.07470481 293.77725005 65.31431284 286.72540997 69.55540466 279.67416382 C74.2038026 271.93799008 78.811103 264.17805745 83.41087341 256.41293335 C89.79948445 245.62863004 96.2297021 234.87278131 102.75364685 224.16976929 C108.77472484 214.28989736 114.72799911 204.3720527 120.62864685 194.41976929 C121.0234021 193.75400879 121.41815735 193.08824829 121.82487488 192.40231323 C124.63648363 187.65932625 127.44537022 182.91472973 130.25364685 178.16976929 C133.46012141 172.75199999 136.66778276 167.33493851 139.87864685 161.91976929 C140.27356323 161.25368652 140.66847961 160.58760376 141.07536316 159.90133667 C146.91980241 150.04891471 152.83322393 140.24074929 158.79618835 130.45968628 C164.92901036 120.39716794 170.95670557 110.27482026 176.95863342 100.13378906 C183.15501614 89.66726001 189.41879522 79.24474327 195.76927185 68.87094116 C203.39457448 56.38231921 210.80727539 43.76556105 218.25364685 31.16976929 C204.77824695 31.23135559 191.30303475 31.30872623 177.8278389 31.4054842 C171.56874666 31.44994767 165.30971594 31.48925481 159.05052185 31.51620483 C152.99437932 31.54247986 146.93847665 31.5830476 140.88248444 31.63295555 C138.58802557 31.6494624 136.29352538 31.6610762 133.99901581 31.66738319 C116.23439894 31.72108695 98.28605309 32.32515434 81.37864685 38.35726929 C80.51062439 38.65842651 79.64260193 38.95958374 78.74827576 39.26986694 C51.89771232 48.95636815 31.6019864 70.84098802 19.25364685 96.16976929 C12.16730857 111.30752463 6.85124348 127.11851089 2.25364685 143.16976929 C-0.23165219 143.41677447 -2.69201045 143.59222817 -5.18385315 143.73226929 C-5.87156799 143.80767944 -6.55928284 143.8830896 -7.26783752 143.96078491 C-10.86775006 144.11147893 -13.0968935 143.61741491 -16.10178947 141.54626465 C-20.47851465 137.50615698 -23.26383351 134.50155402 -23.88920593 128.44052124 C-23.94218772 126.26366365 -23.94654165 124.08526113 -23.91090393 121.90805054 C-23.9266748 120.71175018 -23.94244568 119.51544983 -23.95869446 118.28289795 C-23.9913533 115.02560297 -23.98394628 111.77164067 -23.95528269 108.51440048 C-23.93234475 105.09127053 -23.95367017 101.6683483 -23.96775818 98.24520874 C-23.98408915 92.4986326 -23.96267037 86.75310059 -23.91969299 81.00668335 C-23.87071583 74.3819413 -23.88658474 67.75969241 -23.93613064 61.13501072 C-23.977099 55.4266646 -23.98267586 49.71906495 -23.95918262 44.01061916 C-23.9452185 40.61017992 -23.94308796 37.21090898 -23.97301102 33.81054688 C-23.99595601 30.01582998 -23.96092519 26.22585302 -23.91090393 22.43148804 C-23.92912201 21.31849335 -23.94734009 20.20549866 -23.96611023 19.05877686 C-23.82606183 13.30462163 -22.99204326 9.68455047 -19.03407192 5.38480186 C-13.15769551 -0.14582858 -7.78143798 -0.10614328 0 0 Z " fill="#1955A6" transform="translate(580.7463531494141,336.8302307128906)"/>
<path d="M0 0 C4.455 4.455 4.455 4.455 9 9 C9 31.77 9 54.54 9 78 C160.47 78 311.94 78 468 78 C468 55.23 468 32.46 468 9 C477 0 477 0 483 -1.125 C488.88125368 -0.56769177 492.13874029 1.43216364 496.12981796 5.70484924 C500.37273019 13.18061105 499.24138434 22.35820153 499.16455078 30.71679688 C499.17675502 32.93997007 499.19278468 35.16312505 499.21234131 37.38624573 C499.25329895 43.40930791 499.23749459 49.43097948 499.20892954 55.45406532 C499.18610632 61.76397001 499.20728576 68.0737575 499.22140503 74.38366699 C499.23881565 85.65735933 499.21088794 96.93047967 499.165071 108.20403737 C499.12486351 118.41319297 499.13184881 128.62142742 499.17333984 138.83056641 C499.22157017 150.70340579 499.2393968 162.57579948 499.21282947 174.44875574 C499.19881478 180.7274095 499.19688095 187.00542958 499.22665787 193.28404236 C499.25270261 199.18785022 499.23454326 205.0899228 499.18260956 210.99354362 C499.17073304 213.15701863 499.17408707 215.32064027 499.19397354 217.48405647 C499.34720771 235.85074401 499.34720771 235.85074401 493.80221558 241.7869873 C490.34880188 244.65098319 487.46153107 245.70222484 483 246.125 C477 245 477 245 468 236 C468 213.56 468 191.12 468 168 C316.53 168 165.06 168 9 168 C9 190.77 9 213.54 9 237 C1 245 1 245 -2.34375 246.0625 C-3.3853125 246.041875 -4.426875 246.02125 -5.5 246 C-7.06234375 246.0309375 -7.06234375 246.0309375 -8.65625 246.0625 C-14.0780132 244.33969674 -17.17183825 242.0135712 -20 237 C-21.60876008 229.95996476 -21.10389471 222.4772365 -21.05102539 215.30493164 C-21.0635094 213.07205655 -21.07937887 210.83919821 -21.09837341 208.60636902 C-21.13907496 202.55237638 -21.12910339 196.49945293 -21.1075356 190.44539952 C-21.09433632 185.38813663 -21.10646053 180.33106655 -21.11874098 175.27381128 C-21.14919486 162.66009316 -21.1317704 150.0470056 -21.09134518 137.43337988 C-21.05969842 127.17248783 -21.07291878 116.91244045 -21.1184082 106.65161133 C-21.17128989 94.72126651 -21.19354365 82.79145176 -21.17215914 70.86094755 C-21.16100287 64.5509613 -21.16234532 58.24163914 -21.19609261 51.93171883 C-21.2260378 45.99759071 -21.21198197 40.06514762 -21.16431618 34.1311512 C-21.15403351 31.95637747 -21.15900033 29.78146881 -21.18051529 27.60677719 C-21.34773669 9.14102187 -21.34773669 9.14102187 -15.7719574 3.20628357 C-10.45646363 -1.16076819 -6.68329435 -1.36703748 0 0 Z " fill="#1955A6" transform="translate(20,528)"/>
</svg>
